<?xml version="1.0" encoding="utf-8"?>
<!-- Generator: Adobe Illustrator 19.0.0, SVG Export Plug-In . SVG Version: 6.00 Build 0)  -->
<svg version="1.1" id="Layer_1" xmlns="http://www.w3.org/2000/svg" xmlns:xlink="http://www.w3.org/1999/xlink" x="0px" y="0px"
	 viewBox="-164 42.3 512 512" style="enable-background:new -164 42.3 512 512;" xml:space="preserve">
<style type="text/css">
	.st0{fill:#67676F;}
</style>
<g>
	<g>
		<path class="st0" d="M236.3,217.9c-1.4-3-4.4-4.9-7.7-4.9H127.4l99.8-157.6c1.7-2.6,1.8-6,0.3-8.7c-1.5-2.7-4.4-4.4-7.5-4.4H83.5
			c-3.2,0-6.2,1.8-7.6,4.7l-128,256c-1.3,2.6-1.2,5.8,0.4,8.3c1.6,2.5,4.3,4.1,7.3,4.1h87.7l-95.6,227.1c-1.6,3.9-0.2,8.4,3.4,10.6
			c1.4,0.8,2.9,1.3,4.4,1.3c2.4,0,4.9-1,6.5-3L235.1,227C237.2,224.4,237.7,220.9,236.3,217.9z"/>
	</g>
</g>
</svg>
